<?xml version="1.0" standalone="no"?>
<!DOCTYPE svg PUBLIC "-//W3C//DTD SVG 20010904//EN"
 "http://www.w3.org/TR/2001/REC-SVG-20010904/DTD/svg10.dtd">
<svg version="1.0" xmlns="http://www.w3.org/2000/svg"
 width="435.000000pt" height="430.000000pt" viewBox="0 0 435.000000 430.000000"
 preserveAspectRatio="xMidYMid meet">

<g transform="translate(0.000000,430.000000) scale(0.100000,-0.100000)"
fill="#000000" stroke="none">
<path d="M1895 3794 c-145 -20 -194 -29 -292 -54 -660 -170 -1177 -710 -1321
-1380 -74 -344 -46 -724 78 -1044 237 -613 774 -1046 1430 -1156 109 -18 346
-24 465 -11 966 105 1680 927 1642 1891 -9 229 -50 420 -134 624 -238 584
-750 995 -1385 1112 -79 15 -416 27 -483 18z m226 -103 c11 6 23 8 27 5 3 -3
1 -6 -5 -6 -5 0 -10 -31 -11 -70 l-2 -70 51 0 51 0 -4 71 c-3 66 -2 70 17 64
28 -9 47 -9 69 0 17 7 18 6 11 -11 -14 -30 -18 -140 -6 -162 7 -14 6 -25 -7
-43 -12 -17 -16 -46 -17 -106 0 -84 -8 -100 -35 -68 -9 11 -16 13 -24 5 -5 -5
-18 -10 -28 -10 -15 0 -17 4 -9 18 5 9 11 49 12 87 l4 70 -47 3 -48 3 -2 -53
c-1 -29 -1 -68 0 -85 1 -34 -14 -43 -35 -22 -8 8 -17 8 -33 -1 -28 -15 -33 -9
-20 24 14 37 13 142 -2 166 -10 15 -9 22 6 39 14 16 19 38 20 95 l1 75 23 -15
c17 -11 27 -12 43 -3z m-223 -27 c33 -21 94 -152 81 -175 -5 -10 -9 -39 -9
-66 0 -54 -24 -102 -65 -129 -19 -12 -40 -15 -81 -12 -30 3 -57 1 -60 -4 -3
-4 -11 -8 -17 -8 -8 0 -13 25 -15 72 -2 50 -9 82 -22 105 -15 25 -17 39 -10
58 10 26 3 119 -12 148 -10 20 3 23 32 7 13 -7 21 -7 25 1 20 31 107 33 153 3z
m690 -54 c18 -11 40 -36 47 -54 19 -45 17 -172 -2 -188 -8 -6 -23 -28 -33 -49
-30 -57 -74 -89 -125 -89 -85 0 -139 83 -116 177 7 28 8 50 2 60 -7 13 -2 24
18 43 14 15 34 39 45 54 23 35 74 66 106 66 14 0 40 -9 58 -20z m-1051 -190
c46 -132 40 -129 156 -72 5 2 7 -12 6 -32 -2 -24 1 -40 11 -46 13 -8 13 -9 0
-13 -8 -2 -38 -12 -67 -21 -29 -10 -56 -15 -61 -12 -5 3 -17 -3 -27 -14 -23
-25 -35 -25 -35 -2 0 31 -39 135 -59 157 -13 13 -19 33 -18 60 1 26 -8 60 -25
95 -15 30 -25 56 -23 58 10 10 55 -10 55 -24 0 -8 5 -12 11 -8 8 4 8 9 0 17
-8 8 -6 16 7 30 16 19 17 18 23 -19 4 -22 24 -91 46 -154z m-148 -39 c14 -8
21 -21 21 -42 0 -27 48 -130 71 -154 15 -15 10 -25 -13 -25 -12 0 -32 -10 -45
-22 -21 -20 -23 -20 -23 -3 0 33 -59 141 -85 155 -19 10 -25 21 -25 47 0 37
-44 133 -61 133 -5 0 -7 5 -4 10 3 6 16 10 28 10 12 0 28 10 36 22 13 20 15
18 46 -49 18 -39 42 -76 54 -82z m1540 74 c33 -28 36 -36 50 -108 l9 -49 -47
7 c-25 4 -47 8 -49 10 -2 2 2 12 9 23 18 28 -2 72 -33 72 -31 0 -68 -38 -68
-70 0 -19 -7 -30 -26 -38 -24 -11 -54 -64 -54 -96 0 -29 28 -46 59 -35 43 15
67 45 51 64 -7 8 -21 15 -31 15 -25 0 -24 17 1 32 11 7 20 18 20 25 0 18 7 16
43 -11 18 -13 54 -36 82 -50 43 -24 47 -27 27 -33 -15 -3 -22 -13 -22 -29 0
-28 -18 -41 -26 -20 -9 23 -22 20 -50 -13 -13 -16 -40 -36 -60 -46 -47 -22
-101 -8 -138 36 -32 38 -35 104 -6 168 11 24 20 52 20 62 0 10 4 19 10 19 5 0
27 15 47 33 52 46 72 56 115 57 25 0 46 -8 67 -25z m-1736 -122 c9 -17 23 -33
32 -36 9 -4 15 -19 15 -41 0 -36 50 -159 69 -171 16 -9 4 -25 -20 -25 -10 0
-19 -6 -19 -14 0 -28 -21 -27 -57 3 -21 17 -41 31 -46 31 -12 0 2 -41 26 -74
16 -23 17 -31 7 -34 -8 -3 -24 -16 -36 -29 -14 -15 -25 -20 -29 -13 -14 22
-124 89 -158 95 -22 4 -39 14 -42 25 -6 18 -86 73 -124 85 -25 8 -18 25 10 25
10 0 19 6 19 13 0 6 5 19 10 27 8 12 12 11 32 -7 27 -25 201 -134 206 -129 10
11 -31 76 -68 110 -33 29 -39 40 -29 47 8 5 20 9 27 9 7 0 17 12 23 26 l10 27
30 -47 c31 -46 82 -90 97 -84 5 2 -13 53 -39 113 -52 118 -58 145 -34 145 9 0
20 12 26 28 l11 27 18 -51 c10 -27 25 -64 33 -81z m2015 -89 c39 -27 54 -69
46 -130 -6 -55 -12 -61 -42 -45 -9 5 -25 12 -36 15 -17 6 -18 8 -2 24 36 40 3
99 -48 86 -36 -9 -34 -36 8 -119 l33 -67 -18 -39 c-22 -45 -51 -66 -94 -70
-57 -4 -74 1 -110 32 -34 30 -35 34 -35 100 0 53 3 69 14 69 8 0 18 -4 21 -10
3 -5 17 -10 31 -10 27 0 31 -12 9 -30 -22 -18 -18 -57 7 -74 29 -20 34 -20 58
4 28 28 25 66 -10 128 -32 59 -31 68 19 125 21 23 33 27 76 27 30 0 60 -6 73
-16z m-939 -101 c1 -48 -1 -104 -4 -125 l-7 -38 -204 0 -204 0 0 125 0 125
208 0 208 0 3 -87z m-28 -223 c36 -19 94 -87 140 -164 27 -46 40 -138 30 -211
-5 -33 -8 -61 -7 -62 1 -2 17 2 35 7 35 10 91 -6 106 -30 12 -19 -4 -24 -22
-8 -33 29 -61 31 -98 8 -38 -24 -45 -40 -17 -40 24 0 25 -34 1 -56 -15 -14
-24 -15 -43 -6 l-23 10 18 54 c29 87 40 178 29 237 -12 62 -28 95 -86 171 -61
80 -101 95 -254 94 -153 -1 -188 -16 -254 -107 -26 -37 -53 -85 -61 -108 -22
-63 -19 -164 9 -260 25 -86 23 -98 -16 -99 -23 0 -60 54 -46 68 6 6 17 8 26 5
27 -11 7 21 -26 40 -55 32 -112 -6 -112 -75 0 -47 -23 -51 -45 -9 -8 17 -32
37 -55 47 -23 10 -46 30 -53 44 -9 17 -21 26 -44 28 -35 4 -139 -24 -149 -39
-3 -6 -22 8 -41 30 -19 23 -40 41 -48 41 -7 0 -15 9 -18 21 -5 18 -2 20 21 14
15 -3 40 -19 55 -34 l29 -28 66 19 c83 23 125 17 154 -23 12 -16 41 -40 63
-53 l42 -23 21 34 c24 36 55 44 115 30 l23 -6 -4 97 c-5 115 8 155 80 256 73
101 124 118 317 110 76 -4 113 -10 142 -24z m-155 -25 c-20 -15 -51 -12 -70 6
-6 5 10 9 40 9 45 -1 48 -2 30 -15z m-146 -5 c-12 -8 -9 -10 13 -10 19 0 27
-5 28 -17 0 -13 2 -14 6 -4 3 8 -3 21 -13 29 -18 13 -18 14 1 10 28 -5 30 -40
3 -64 -18 -15 -20 -15 -9 -1 12 15 11 17 -10 17 -35 0 -69 11 -69 21 0 6 10
14 23 19 30 12 46 12 27 0z m216 1 c-16 -3 -32 -13 -34 -21 -4 -12 -2 -13 9
-4 20 16 73 24 89 14 19 -12 -35 -33 -68 -27 -18 3 -22 1 -18 -12 4 -11 2 -10
-9 3 -28 37 -18 57 29 55 l31 -1 -29 -7z m-126 -31 c0 -5 -4 -10 -10 -10 -5 0
-10 5 -10 10 0 6 5 10 10 10 6 0 10 -4 10 -10z m70 0 c0 -5 -4 -10 -10 -10 -5
0 -10 5 -10 10 0 6 5 10 10 10 6 0 10 -4 10 -10z m-251 -21 c-13 -24 -4 -35
31 -42 21 -4 19 -5 -8 -6 -37 -1 -49 17 -32 48 6 12 13 21 16 21 2 0 0 -9 -7
-21z m430 -35 c-6 -8 -23 -13 -38 -13 -20 1 -22 2 -6 6 31 8 38 19 25 44 l-11
24 21 -24 c16 -18 18 -27 9 -37z m-264 16 c3 -5 1 -10 -4 -10 -6 0 -11 5 -11
10 0 6 2 10 4 10 3 0 8 -4 11 -10z m63 -10 c15 -25 76 -56 128 -64 58 -10 101
-40 119 -82 18 -44 19 -58 3 -48 -8 5 -9 2 -4 -12 15 -39 16 -110 3 -164 l-14
-55 0 105 c1 112 -9 145 -55 186 -53 49 -87 59 -203 59 -123 0 -168 -16 -218
-75 -33 -39 -40 -79 -35 -193 4 -87 4 -90 -10 -57 -9 23 -13 62 -10 121 1 48
0 85 -4 82 -14 -8 -8 17 12 57 23 46 52 63 131 79 40 8 68 22 95 46 22 19 41
34 44 35 3 0 11 -9 18 -20z m-238 -46 c0 -8 -6 -11 -15 -8 -8 4 -15 12 -15 20
0 8 6 11 15 8 8 -4 15 -12 15 -20z m449 -5 c-9 -5 -15 -4 -18 2 -2 6 3 15 10
20 9 5 15 4 18 -2 2 -6 -3 -15 -10 -20z m-528 -70 c-9 -23 -10 -23 -10 -2 -1
12 2 30 6 40 6 15 8 15 11 2 1 -8 -2 -26 -7 -40z m603 -4 l6 -30 -15 25 c-8
14 -14 34 -14 45 0 16 1 17 8 5 5 -8 11 -28 15 -45z m-270 26 c3 -5 15 -7 26
-4 22 6 27 -9 8 -24 -15 -11 -127 -11 -145 0 -6 4 -13 2 -15 -5 -3 -7 -7 -5
-11 6 -4 10 -3 15 3 11 6 -3 10 -1 10 6 0 6 8 9 20 6 11 -3 23 -1 26 4 3 5 20
9 39 9 19 0 36 -4 39 -9z m31 -75 c8 -7 11 -17 7 -21 -4 -4 3 -3 15 4 34 18
70 13 87 -11 18 -26 13 -36 -9 -18 -21 18 -40 7 -70 -40 -17 -27 -31 -40 -41
-36 -8 3 -14 1 -14 -3 0 -5 7 -12 16 -15 8 -3 12 -10 9 -16 -3 -5 0 -10 8 -10
8 0 22 -18 32 -40 10 -22 24 -40 30 -40 7 0 15 -7 19 -15 3 -8 17 -15 31 -15
27 0 28 -1 19 -24 -7 -18 -34 -22 -34 -5 0 8 -5 7 -16 -1 -13 -11 -16 -10 -21
8 -3 12 -10 19 -15 16 -5 -3 -7 -12 -4 -20 4 -10 -4 -14 -30 -14 -19 0 -46 -7
-59 -16 -23 -15 -28 -15 -68 5 -24 12 -52 19 -61 15 -12 -4 -16 0 -16 15 0 28
-16 27 -24 -1 -6 -23 -6 -23 -23 -3 -9 12 -14 14 -11 5 3 -8 2 -24 -2 -34 -6
-18 -9 -16 -23 14 -21 41 -21 40 6 40 24 0 81 55 92 90 5 16 13 20 27 17 15
-4 17 -3 7 9 -9 11 -8 15 5 20 21 8 21 22 -1 20 -10 0 -24 12 -33 33 -21 42
-43 55 -70 41 -16 -9 -20 -8 -20 5 0 25 46 41 80 28 25 -10 30 -8 35 8 5 16
16 19 66 19 38 0 66 -5 74 -14z m-185 -75 c17 -32 12 -46 -9 -27 -12 11 -21
14 -26 7 -3 -6 -2 -11 2 -11 13 0 7 -64 -6 -68 -6 -2 -11 -11 -11 -19 0 -13
-3 -13 -15 -3 -8 7 -15 23 -15 37 0 13 7 26 15 29 8 4 15 18 15 33 0 45 30 58
50 22z m275 7 c2 -7 5 -22 7 -33 2 -11 9 -25 16 -31 17 -13 12 -56 -7 -62 -8
-3 -11 0 -7 7 4 6 1 11 -7 11 -20 0 -28 25 -14 39 9 9 8 14 -3 21 -10 7 -11
10 -2 10 6 0 12 5 12 11 0 7 -10 5 -25 -5 -27 -18 -32 -8 -13 24 14 23 36 26
43 8z m822 -18 c17 -10 36 -28 42 -38 6 -11 24 -22 41 -25 21 -5 37 -18 51
-41 11 -19 26 -37 34 -40 8 -3 15 -12 15 -20 0 -7 7 -17 15 -20 42 -16 63
-186 29 -234 -14 -21 -13 -24 18 -62 18 -22 37 -40 42 -40 23 0 46 -35 46 -69
0 -39 -38 -91 -65 -91 -23 0 -18 24 10 50 30 28 29 60 -1 75 -12 6 -44 36 -72
66 l-51 56 30 25 c21 20 29 35 29 60 -1 60 -18 121 -38 137 -10 9 -22 24 -25
34 -4 9 -12 17 -19 17 -8 0 -19 14 -25 30 -9 24 -17 30 -40 30 -23 0 -35 8
-54 38 -36 55 -75 56 -122 2 -19 -23 -38 -37 -41 -31 -10 15 -114 43 -149 39
-23 -2 -35 -11 -45 -30 -14 -29 -27 -34 -52 -18 -10 7 -11 10 -2 10 7 0 17 11
23 24 6 13 26 32 44 42 32 17 36 17 109 -3 l76 -20 22 25 c42 45 78 51 125 22z
m-1937 -10 c0 -11 -4 -20 -9 -20 -5 0 -19 -16 -32 -36 -16 -27 -24 -32 -30
-22 -7 10 -9 10 -9 1 0 -7 -8 -13 -19 -13 -11 0 -23 -12 -31 -29 -6 -16 -20
-31 -31 -34 -11 -3 -19 -14 -19 -26 0 -13 -8 -23 -24 -27 -21 -5 -24 -13 -30
-81 -7 -75 -7 -76 23 -107 l29 -31 -51 -56 c-29 -31 -60 -59 -70 -62 -46 -17
-19 -87 33 -87 26 0 30 4 30 29 0 22 14 42 63 88 35 33 83 69 107 81 42 20 43
20 89 2 25 -10 84 -36 130 -59 47 -23 91 -41 99 -41 21 0 38 -23 46 -61 16
-85 94 -159 191 -179 37 -8 54 -16 58 -29 2 -11 -7 -57 -20 -102 -26 -87 -34
-190 -20 -246 8 -32 8 -33 -26 -33 -23 0 -43 9 -62 26 -34 32 -84 54 -121 54
-33 0 -144 -51 -142 -65 1 -5 -2 -21 -6 -35 -3 -14 -8 -43 -9 -65 -2 -22 -17
-68 -35 -102 l-32 -62 72 -66 c92 -85 215 -166 325 -216 l88 -38 6 57 c4 31 7
89 8 128 1 78 6 84 61 84 l28 0 -5 -150 c-6 -149 -6 -150 15 -150 21 0 22 5
23 83 1 45 4 107 9 137 6 43 7 24 9 -87 l1 -143 28 -7 c35 -10 399 -10 435 0
l27 7 1 103 c1 121 15 92 21 -45 l4 -87 -45 -11 c-25 -6 -105 -14 -178 -17
-332 -14 -652 106 -894 335 l-82 77 37 72 c20 40 36 85 36 101 0 67 49 145
112 178 58 30 173 11 225 -38 l23 -21 0 70 c0 39 9 105 21 149 29 112 31 105
-37 129 -34 12 -75 32 -92 46 -41 33 -81 95 -94 147 -6 24 -16 42 -25 42 -21
0 -173 71 -173 81 0 5 -11 9 -23 9 -13 0 -38 7 -54 15 l-31 15 -75 -71 c-56
-52 -77 -80 -81 -105 -12 -60 -78 -73 -127 -25 -41 42 -41 94 1 120 17 10 46
36 65 58 34 40 34 41 15 58 -35 32 -22 186 19 228 49 50 81 88 81 96 0 5 15
14 33 22 17 7 46 27 63 46 36 38 54 42 54 13z m73 -72 c20 -23 32 -48 29 -56
-4 -13 -7 -12 -17 2 -17 22 -35 20 -35 -5 0 -13 -4 -18 -12 -13 -7 5 2 -9 20
-29 17 -21 32 -40 32 -42 0 -11 -65 -63 -70 -57 -3 4 -22 20 -42 35 -43 31
-47 51 -18 69 24 15 27 33 4 24 -14 -5 -15 -1 -9 31 4 21 11 46 16 55 11 21
35 24 42 6 3 -8 6 -6 6 5 1 27 17 20 54 -25z m1847 32 c32 -17 56 -115 25
-104 -8 4 -15 1 -15 -4 0 -6 9 -14 20 -17 31 -10 24 -40 -19 -74 -21 -17 -43
-31 -48 -31 -5 0 -21 13 -36 28 l-28 29 22 27 c28 35 34 87 10 78 -9 -3 -21
-13 -28 -21 -11 -14 -12 -14 -13 3 0 24 57 96 76 96 9 0 24 -4 34 -10z m-1686
-67 c-8 -46 -17 -53 -71 -53 -35 0 -43 3 -43 18 0 38 44 68 103 71 15 1 17 -4
11 -36z m1498 26 c26 -7 43 -19 53 -39 8 -16 15 -31 15 -35 0 -3 -22 -5 -50
-5 -52 0 -60 7 -74 63 -7 31 -1 33 56 16z m-1182 -42 c0 -60 89 -117 150 -95
36 12 50 1 50 -40 0 -23 -2 -24 -57 -19 -84 8 -124 18 -130 33 -2 7 -11 10
-18 8 -7 -3 -20 5 -29 17 -36 52 -28 129 14 129 16 0 20 -7 20 -33z m864 2 c5
-14 6 -38 2 -52 -9 -38 -62 -95 -89 -95 -12 -1 -55 -4 -94 -8 -78 -7 -80 -6
-67 44 6 19 11 22 33 17 14 -4 29 -11 32 -17 4 -7 9 -6 14 1 3 7 14 10 23 7
11 -3 32 9 57 31 30 29 39 44 39 70 0 28 3 33 20 31 12 -2 25 -15 30 -29z m79
-34 c-34 -43 -53 -45 -53 -6 0 22 8 34 33 48 46 28 57 5 20 -42z m-1564 18
c-15 -40 -3 -72 43 -114 l41 -37 -34 -21 c-43 -26 -45 -26 -74 5 -28 30 -32
53 -12 73 10 10 9 11 -5 6 -14 -6 -18 -2 -18 16 0 44 20 98 38 102 27 6 32 -2
21 -30z m2077 29 c23 -15 36 -52 23 -68 -8 -10 -8 -14 0 -14 6 0 11 -9 11 -19
0 -15 -6 -19 -27 -17 -26 3 -27 6 -29 65 -3 60 1 68 22 53z m-368 -29 c3 -20
-1 -23 -30 -23 -78 0 -93 -54 -62 -226 25 -144 23 -194 -9 -243 -44 -66 -92
-83 -241 -84 -115 -2 -121 -1 -121 18 0 19 9 20 115 26 194 10 228 41 216 199
-4 47 -9 96 -11 110 -17 106 -17 127 2 171 14 31 31 51 54 62 46 23 83 18 87
-10z m-1328 6 c0 16 37 13 66 -5 56 -38 64 -90 38 -252 -9 -53 -14 -118 -11
-144 2 -26 0 -45 -5 -42 -21 13 -4 -10 28 -39 48 -42 68 -47 199 -55 106 -7
110 -8 113 -31 l4 -24 -127 6 c-151 7 -195 24 -238 89 -30 46 -35 112 -16 198
6 25 13 88 16 141 5 93 4 97 -18 113 -13 9 -38 16 -56 16 -21 0 -33 5 -33 13
0 21 12 28 27 16 9 -9 13 -8 13 0z m-458 -83 c-3 -50 -1 -57 32 -93 27 -30 33
-42 24 -51 -18 -18 -32 -14 -63 18 -23 24 -26 32 -15 45 10 12 10 15 0 15 -9
0 -11 11 -6 41 6 35 22 79 29 79 1 0 0 -24 -1 -54z m2234 -25 c5 -41 4 -52 -5
-46 -9 5 -9 1 1 -14 12 -19 10 -24 -17 -46 -34 -28 -46 -30 -63 -13 -9 9 -4
20 23 49 31 31 36 43 37 88 2 64 14 54 24 -18z m-1769 33 c-3 -3 -12 -4 -19
-1 -8 3 -5 6 6 6 11 1 17 -2 13 -5z m195 -51 c35 -36 60 -106 49 -135 -7 -18
-9 -15 -14 21 -3 24 -15 53 -28 67 -29 31 -41 31 -29 -2 6 -14 10 -40 9 -57 0
-30 -1 -29 -25 22 -13 29 -24 71 -24 93 0 34 2 38 18 29 9 -5 29 -22 44 -38z
m947 -38 c-4 -6 -17 -33 -28 -60 l-21 -50 3 45 c2 25 7 53 12 64 6 14 5 18 -5
14 -22 -7 -52 -54 -61 -95 -8 -38 -8 -37 -4 7 5 58 28 103 68 135 l32 25 5
-38 c3 -20 3 -42 -1 -47z m-1656 27 c-5 -43 -2 -50 26 -81 29 -31 30 -36 17
-49 -14 -14 -18 -14 -36 3 -11 10 -18 25 -16 32 3 7 1 13 -4 13 -13 0 -13 71
0 104 15 39 20 31 13 -22z m2326 -17 c6 -31 6 -54 0 -59 -5 -6 -9 -17 -9 -26
0 -24 -38 -44 -56 -29 -12 10 -9 17 17 47 28 32 31 40 27 84 -6 61 9 49 21
-17z m-1941 39 c5 -4 -55 -34 -68 -34 -5 0 -10 11 -10 24 0 23 3 24 38 19 20
-3 39 -7 40 -9z m743 -4 c21 -10 32 -9 57 4 41 21 70 20 110 -4 37 -23 42 -56
15 -87 -10 -11 -50 -30 -88 -43 l-71 -23 -68 23 c-38 12 -77 31 -87 41 -29 29
-24 64 14 88 34 22 72 22 118 1z m869 11 c0 -5 3 -17 7 -27 5 -15 2 -16 -27
-11 -18 4 -40 13 -48 20 -15 12 -14 13 61 26 4 0 7 -3 7 -8z m230 -12 c7 -11
1 -26 -20 -50 l-28 -34 -36 19 c-20 11 -36 23 -36 28 0 5 12 19 27 32 31 27
80 29 93 5z m-1790 -20 c0 -10 -101 -61 -107 -55 -10 10 13 35 50 53 42 20 57
21 57 2z m1569 -42 c9 -27 -11 -26 -72 1 -62 29 -75 40 -61 54 6 7 129 -44
133 -55z m-1738 -20 c-13 -13 -15 21 -3 50 6 15 8 13 10 -11 2 -16 -1 -33 -7
-39z m645 33 c24 0 44 -4 44 -10 0 -23 -131 -3 -159 25 -15 15 -13 15 28 0 24
-8 63 -15 87 -15z m585 10 c-13 -11 -31 -20 -41 -20 -9 0 -38 -3 -64 -6 -31
-5 -46 -3 -46 5 0 7 20 11 53 11 28 1 66 7 82 15 41 18 44 18 16 -5z m653 -59
c110 -72 188 -141 169 -148 -7 -3 -48 20 -90 50 -43 30 -106 69 -140 87 -56
28 -63 35 -63 61 0 22 4 28 13 23 6 -4 57 -37 111 -73z m-1609 19 c-4 -23 -9
-39 -11 -37 -3 2 -2 23 2 46 4 23 9 40 11 37 3 -3 2 -23 -2 -46z m-297 12 c-1
-21 -8 -32 -29 -41 -49 -21 -177 -108 -224 -152 -25 -23 -47 -40 -50 -38 -2 3
14 28 36 56 38 48 174 153 198 153 6 0 11 5 11 10 0 6 5 10 11 10 6 0 17 7 25
15 21 20 23 19 22 -13z m72 9 c0 -6 -4 -13 -10 -16 -5 -3 -10 1 -10 9 0 9 5
16 10 16 6 0 10 -4 10 -9z m503 -19 c28 -13 47 -28 47 -38 0 -13 -3 -14 -14
-5 -11 10 -16 8 -21 -9 -3 -11 -11 -18 -16 -15 -5 4 -9 -4 -10 -17 0 -17 -5
-11 -18 22 -27 66 -34 93 -25 88 5 -2 30 -14 57 -26z m725 6 c-6 -18 -28 -21
-28 -4 0 9 7 16 16 16 9 0 14 -5 12 -12z m-29 -26 c11 -21 4 -62 -11 -62 -6 0
-7 7 -4 16 5 14 4 15 -8 5 -12 -10 -16 -8 -21 9 -3 11 -11 18 -16 15 -5 -4 -9
0 -9 9 0 29 55 35 69 8z m258 -14 c-3 -7 -5 -2 -5 12 0 14 2 19 5 13 2 -7 2
-19 0 -25z m-1422 -5 c-11 -7 -28 -13 -39 -13 -12 0 -35 -9 -53 -20 -31 -18
-52 -13 -38 10 11 18 63 40 79 34 8 -3 23 -1 33 4 25 14 40 2 18 -15z m1660
11 c17 6 75 -21 75 -37 0 -25 -12 -27 -40 -7 -16 11 -39 20 -52 20 -23 0 -48
16 -48 32 0 4 12 3 27 -3 14 -5 32 -8 38 -5z m-1085 -9 c-7 -9 -15 -13 -17
-11 -7 7 7 26 19 26 6 0 6 -6 -2 -15z m479 -11 c3 -16 1 -17 -13 -5 -19 16
-21 34 -3 29 6 -3 14 -13 16 -24z m-305 -20 c45 -15 53 -15 107 0 68 18 72 19
65 7 -3 -4 -32 -18 -64 -29 l-58 -22 -57 24 c-92 37 -86 52 7 20z m683 -6 c-3
-8 -6 -5 -6 6 -1 11 2 17 5 13 3 -3 4 -12 1 -19z m406 -36 c62 -36 157 -130
157 -155 0 -11 8 -29 17 -39 12 -14 14 -21 5 -30 -16 -16 -48 14 -55 52 -7 34
-53 82 -127 132 -48 32 -57 34 -71 22 -8 -8 -21 -14 -27 -14 -6 0 -47 -18 -91
-39 -44 -21 -93 -43 -109 -49 -23 -8 -32 -20 -42 -57 -26 -93 -114 -172 -211
-190 l-36 -7 24 -90 c14 -56 23 -119 23 -165 l0 -75 23 16 c68 50 83 56 140
56 61 0 117 -22 149 -57 25 -27 48 -87 48 -123 0 -17 9 -49 21 -72 12 -23 27
-58 34 -78 13 -36 12 -39 -16 -66 -23 -22 -32 -25 -41 -16 -10 10 -8 17 9 34
21 20 21 23 6 62 -9 23 -22 50 -30 61 -7 11 -13 35 -13 55 0 55 -38 121 -85
147 -32 18 -53 22 -108 20 -45 -1 -66 -6 -63 -13 8 -20 -37 -51 -82 -58 l-44
-7 9 33 c16 66 4 235 -21 270 -9 12 -16 39 -16 59 0 35 2 38 38 44 102 17 193
94 208 175 11 62 15 70 37 70 12 0 51 14 85 30 35 17 67 28 72 25 4 -3 10 1
13 9 4 11 94 53 117 55 3 1 26 -12 53 -27z m-1676 -124 c-2 -13 -4 -3 -4 22 0
25 2 35 4 23 2 -13 2 -33 0 -45z m1833 37 c0 -8 5 -15 10 -15 6 0 10 -4 10
-10 0 -17 -14 -10 -33 15 -15 22 -16 25 -2 25 8 0 15 -7 15 -15z m-1634 -11
c19 -5 22 -13 21 -55 -1 -56 -16 -63 -61 -28 -23 18 -56 67 -56 84 0 7 69 6
96 -1z m969 -16 c-9 -31 -72 -90 -92 -86 -13 2 -17 15 -18 50 -1 52 2 54 78
57 35 1 38 -1 32 -21z m730 -34 c0 -12 -8 -20 -22 -22 -25 -4 -31 16 -11 36
17 17 33 10 33 -14z m-2477 -7 c3 -14 -1 -18 -20 -15 -12 2 -24 11 -26 21 -3
14 1 18 20 15 12 -2 24 -11 26 -21z m1122 -111 l0 -94 -37 -4 c-61 -8 -63 -5
-63 98 l0 94 50 0 50 0 0 -94z m288 0 c2 -49 -1 -92 -5 -96 -4 -4 -27 -5 -50
-2 -39 4 -43 7 -42 31 2 23 2 24 6 4 4 -19 11 -23 44 -23 l39 0 0 44 c0 49
-16 62 -64 50 -25 -6 -26 -5 -26 40 l0 47 48 -3 47 -3 3 -89z m-804 68 c3 -8
2 -12 -4 -9 -6 3 -10 10 -10 16 0 14 7 11 14 -7z m686 -64 c0 -18 -7 -20 -70
-20 -63 0 -70 2 -70 20 0 18 7 20 70 20 63 0 70 -2 70 -20z m490 -4 c0 -2 -7
-7 -16 -10 -8 -3 -12 -2 -9 4 6 10 25 14 25 6z m-981 -42 c9 -8 -55 -2 -74 6
-13 6 -5 7 25 3 25 -3 47 -7 49 -9z m911 12 c0 -2 -7 -7 -16 -10 -8 -3 -12 -2
-9 4 6 10 25 14 25 6z m-57 -13 c-7 -2 -21 -2 -30 0 -10 3 -4 5 12 5 17 0 24
-2 18 -5z m-670 -10 c-7 -2 -19 -2 -25 0 -7 3 -2 5 12 5 14 0 19 -2 13 -5z
m484 1 c-3 -3 -12 -4 -19 -1 -8 3 -5 6 6 6 11 1 17 -2 13 -5z m-25 -87 c11
-17 10 -127 -1 -127 -5 0 -14 7 -22 16 -27 32 -113 67 -179 72 -81 5 -134 -9
-199 -53 l-51 -34 0 69 0 69 58 3 c124 6 387 -4 394 -15z m-488 4 c3 -4 -6 -6
-19 -3 l-25 4 -1 -153 c-2 -312 -5 -448 -10 -452 -2 -3 -15 -8 -28 -12 l-23
-7 6 133 c3 74 8 213 12 309 3 96 8 178 11 183 6 10 71 9 77 -2z m601 -1 c12
-19 23 -424 12 -437 -6 -9 -6 -13 2 -13 7 0 11 -29 11 -86 0 -74 -2 -85 -16
-80 -9 3 -20 6 -25 6 -7 0 -10 57 -8 149 1 81 0 152 -3 157 -3 5 -6 65 -6 134
-1 69 -2 135 -2 147 0 12 -8 24 -17 26 -10 3 -4 5 14 6 17 0 35 -4 38 -9z
m-255 -93 c38 -12 106 -60 130 -91 67 -90 65 -234 -4 -328 -52 -72 -167 -115
-259 -97 -100 18 -184 92 -207 181 -14 48 -9 160 6 165 8 3 9 -9 3 -42 -32
-169 117 -313 293 -283 227 39 273 364 66 462 -100 48 -207 33 -281 -38 -23
-23 -47 -50 -53 -61 -7 -11 -15 -17 -19 -13 -11 10 32 75 68 103 78 59 161 73
257 42z m177 -54 c-3 -10 -5 -4 -5 12 0 17 2 24 5 18 2 -7 2 -21 0 -30z m-283
-29 c3 -26 6 -60 6 -76 0 -17 4 -27 10 -23 6 3 10 24 10 46 0 35 3 39 25 39
21 0 25 -5 25 -30 0 -24 -4 -30 -22 -31 -21 -1 -21 -2 -3 -6 27 -7 35 -21 35
-67 0 -22 3 -36 7 -32 4 4 6 25 4 46 -2 39 -1 40 28 40 28 0 31 -3 31 -30 0
-20 -5 -30 -15 -30 -8 0 -15 -4 -15 -10 0 -5 7 -10 15 -10 10 0 15 -11 16 -32
l1 -33 10 33 c8 24 17 32 35 32 31 0 38 -20 23 -65 -13 -40 -67 -108 -80 -100
-4 3 -11 -2 -14 -11 -5 -13 -9 -14 -20 -5 -11 9 -15 7 -19 -9 -4 -17 -13 -20
-67 -20 -35 0 -76 7 -95 15 -64 31 -125 111 -125 166 0 14 7 19 30 19 27 0 30
-3 31 -32 1 -33 1 -33 9 6 4 21 8 75 9 119 2 63 6 83 19 93 15 11 18 7 24 -44
4 -31 10 -84 15 -117 l7 -60 7 99 c5 65 12 102 20 108 11 7 11 11 2 15 -17 6
-16 43 1 43 8 0 16 -17 20 -46z m69 27 c6 -24 0 -31 -25 -31 -13 0 -18 7 -18
25 0 31 35 35 43 6z m64 -27 c-9 -9 -28 6 -21 18 4 6 10 6 17 -1 6 -6 8 -13 4
-17z m11 -47 c3 -22 -1 -27 -17 -27 -15 0 -21 6 -21 23 0 46 33 49 38 4z m56
-2 c3 -8 1 -15 -4 -15 -6 0 -10 7 -10 15 0 8 2 15 4 15 2 0 6 -7 10 -15z
m-352 -20 c4 -19 1 -25 -13 -25 -16 0 -17 3 -7 25 6 14 12 25 13 25 2 0 5 -11
7 -25z m-495 -41 c-3 -3 -12 -4 -19 -1 -8 3 -5 6 6 6 11 1 17 -2 13 -5z m881
-21 c3 -20 -1 -23 -27 -23 -27 0 -31 4 -31 26 0 22 4 25 28 22 19 -2 28 -9 30
-25z m470 20 c-10 -2 -28 -2 -40 0 -13 2 -5 4 17 4 22 1 32 -1 23 -4z m-846
-28 c5 -22 2 -25 -23 -25 -24 0 -29 4 -29 25 0 20 5 25 24 25 17 0 25 -7 28
-25z m-567 5 c-3 -5 -12 -10 -18 -10 -7 0 -6 4 3 10 19 12 23 12 15 0z m66
-37 l1 -38 13 40 13 40 2 -35 c2 -32 3 -33 9 -10 10 35 31 31 58 -9 24 -35 30
-61 14 -61 -4 0 -6 -11 -4 -25 4 -18 -3 -32 -28 -55 -53 -48 -138 -38 -169 21
-9 16 -7 21 12 29 22 8 22 9 -4 9 -16 1 -28 6 -28 12 0 7 10 9 25 7 14 -3 25
-1 25 3 0 5 12 10 28 10 l27 2 -27 4 c-16 3 -28 11 -28 19 0 9 7 14 18 12 12
-2 16 3 15 17 -3 26 4 45 17 45 5 0 10 -17 11 -37z m1357 -8 c0 -28 -5 -45
-13 -45 -7 0 -12 17 -13 45 0 32 4 45 14 45 9 0 13 -13 12 -45z m-1398 14 c0
-11 -4 -17 -10 -14 -5 3 -10 13 -10 21 0 8 5 14 10 14 6 0 10 -9 10 -21z
m1331 -16 c1 -24 3 -29 6 -15 6 32 23 27 23 -8 0 -28 3 -30 35 -30 28 0 35 -4
35 -19 0 -10 9 -21 20 -24 26 -7 25 -19 -4 -46 -36 -34 -106 -40 -145 -12 -55
40 -62 120 -14 173 26 29 43 22 44 -19z m104 7 c-5 -8 -11 -8 -17 -2 -6 6 -7
16 -3 22 5 8 11 8 17 2 6 -6 7 -16 3 -22z m63 -25 c-3 -3 -9 2 -12 12 -6 14
-5 15 5 6 7 -7 10 -15 7 -18z m-1542 -22 c-10 -10 -19 5 -10 18 6 11 8 11 12
0 2 -7 1 -15 -2 -18z m1476 12 c0 -5 -5 -11 -11 -13 -6 -2 -11 4 -11 13 0 9 5
15 11 13 6 -2 11 -8 11 -13z m40 0 c0 -5 -5 -11 -11 -13 -6 -2 -11 4 -11 13 0
9 5 15 11 13 6 -2 11 -8 11 -13z m-235 -57 c-2 -13 -4 -3 -4 22 0 25 2 35 4
23 2 -13 2 -33 0 -45z m78 -102 c6 -4 1 -4 -10 2 -11 6 -29 21 -40 34 -19 22
-19 22 10 -2 17 -14 35 -29 40 -34z m-1195 9 c-7 -8 -17 -15 -23 -15 -6 0 -2
7 9 15 25 19 30 19 14 0z m503 -106 c90 -24 220 5 284 64 19 17 23 18 28 4 4
-8 5 -30 3 -49 l-3 -33 -227 -3 -228 -2 0 49 0 50 51 -34 c28 -19 69 -40 92
-46z m461 -10 c5 -4 11 -62 14 -128 4 -104 7 -121 21 -121 49 0 254 119 359
207 36 31 58 43 70 38 14 -6 9 -14 -33 -53 -57 -52 -225 -164 -239 -159 -5 2
-17 -4 -26 -13 -26 -26 -191 -83 -204 -70 -14 14 -26 13 -20 -3 2 -7 -4 -13
-16 -14 -11 -1 -20 4 -20 13 0 8 5 14 12 14 8 0 9 39 5 149 -5 115 -4 151 6
154 15 6 59 -3 71 -14z m443 -283 c-3 -8 1 -20 9 -26 22 -20 17 -27 -31 -40
-55 -15 -59 -20 -39 -49 14 -19 24 -22 76 -20 53 2 63 0 79 -20 19 -23 25 -74
13 -106 -8 -19 -55 -45 -85 -45 -12 0 -37 10 -56 21 l-34 21 22 24 c22 23 22
24 36 4 24 -34 73 -19 73 22 0 22 -37 32 -97 25 -40 -4 -49 -2 -69 22 -13 14
-24 32 -24 39 0 9 -10 7 -31 -9 l-30 -21 -15 21 c-28 39 -65 24 -80 -33 -6
-26 -5 -28 12 -21 10 5 38 10 61 13 37 3 46 0 78 -32 35 -35 35 -36 24 -81
-16 -62 -50 -89 -107 -82 -63 7 -97 45 -106 120 -10 78 -21 63 -17 -23 4 -102
-27 -150 -98 -150 -20 0 -43 11 -66 31 l-35 31 24 19 c31 25 36 24 36 -4 0
-20 5 -24 31 -23 37 1 74 42 63 69 -5 14 -8 15 -21 2 -19 -20 -82 -20 -89 0
-4 8 -11 15 -17 15 -6 0 -22 12 -35 28 l-23 27 6 -94 c4 -52 9 -100 12 -108 4
-11 -1 -13 -20 -8 -14 4 -28 2 -32 -4 -3 -6 -11 -9 -16 -5 -5 3 -7 9 -4 14 6
10 -12 252 -20 280 -4 12 4 16 36 16 26 1 37 -2 31 -8 -6 -6 -6 -22 1 -44 l11
-35 15 43 c12 32 25 47 53 61 35 17 39 17 70 1 18 -9 45 -28 60 -41 l27 -25
11 41 c6 22 20 50 32 61 28 26 82 26 115 0 36 -28 46 -25 28 10 -15 29 -15 30
7 30 13 0 50 14 83 30 70 35 69 34 62 16z m-1581 -22 c-3 -9 -6 -19 -6 -22 0
-4 -13 -13 -30 -20 -16 -8 -30 -17 -30 -21 0 -5 23 -30 52 -57 46 -43 52 -53
49 -84 -4 -46 -27 -71 -57 -64 -18 5 -24 2 -24 -10 0 -30 -75 -13 -97 23 -6 9
-14 31 -18 49 -6 31 -6 32 27 32 33 0 34 -2 30 -30 -3 -25 0 -30 21 -35 14 -4
31 -4 36 0 20 12 11 58 -16 87 -15 15 -21 28 -14 28 7 0 10 4 7 9 -3 5 -14 7
-24 4 -15 -3 -17 2 -17 35 1 52 18 73 56 65 24 -5 28 -3 23 11 -5 12 0 16 16
16 16 0 20 -4 16 -16z m69 -52 c3 -15 8 -34 11 -43 4 -14 -2 -17 -31 -17 -37
0 -42 7 -25 39 8 15 7 19 -5 19 -18 0 -18 1 -5 36 10 25 11 26 29 10 11 -10
22 -30 26 -44z m109 -12 c-14 -32 -27 -110 -20 -117 13 -13 35 28 42 79 6 45
16 59 28 39 3 -4 16 -6 29 -4 24 5 24 2 31 -77 11 -127 20 -139 40 -53 9 40
16 81 16 92 0 22 14 28 25 11 3 -5 17 -10 30 -10 23 0 24 -1 9 -35 -16 -40
-19 -95 -4 -95 6 0 19 19 29 43 24 56 54 81 96 81 38 0 69 -23 92 -67 17 -34
18 -33 -24 -42 -30 -6 -33 -5 -33 19 0 34 -32 52 -52 28 -22 -24 -27 -44 -17
-64 6 -11 3 -27 -8 -46 -14 -24 -15 -37 -8 -59 14 -39 51 -43 67 -8 6 14 16
23 22 20 6 -3 19 -8 29 -11 25 -9 22 -18 -18 -53 -77 -67 -165 -17 -165 94 0
77 -46 33 -57 -54 -5 -48 -15 -62 -28 -42 -3 5 -20 7 -39 4 l-33 -5 -7 88 c-9
122 -17 128 -36 24 -18 -94 -18 -94 -34 -81 -7 6 -22 8 -31 4 -15 -5 -17 -3
-11 13 24 57 37 127 26 138 -16 16 -34 -12 -50 -79 -13 -54 -22 -66 -35 -45
-4 6 -15 8 -26 5 -23 -8 -23 -4 0 67 11 31 17 66 14 78 -3 12 1 28 11 39 9 10
22 40 28 67 l12 50 33 -11 c24 -7 31 -14 27 -25z m567 -64 l56 2 1 -34 1 -34
-44 7 -45 6 0 -33 c0 -31 2 -32 33 -28 31 3 32 2 32 -33 0 -36 0 -36 -28 -27
-34 12 -42 6 -43 -33 0 -28 1 -29 49 -29 46 0 49 -1 43 -22 -3 -13 -6 -29 -6
-35 0 -9 -22 -12 -77 -11 l-78 2 3 69 c2 39 -1 74 -7 80 -7 7 -5 19 6 40 10
20 14 46 11 78 -5 45 -4 47 16 40 12 -4 46 -6 77 -5z"/>
<path d="M1798 3619 c-23 -13 -23 -46 1 -93 15 -28 17 -44 11 -62 -5 -13 -7
-44 -3 -69 5 -43 7 -45 38 -45 38 0 52 14 61 59 5 25 1 39 -15 62 -17 23 -19
33 -11 48 16 32 12 60 -15 86 -26 27 -40 30 -67 14z"/>
<path d="M2480 3533 c-15 -20 -20 -36 -16 -56 4 -22 1 -33 -15 -45 -11 -10
-24 -34 -28 -54 -7 -31 -5 -43 11 -63 23 -29 39 -31 72 -10 30 20 50 67 42 98
-4 18 1 30 20 46 21 19 25 29 20 53 -8 43 -24 58 -56 58 -19 0 -36 -9 -50 -27z"/>
<path d="M1898 3154 c-2 -23 -1 -65 0 -93 3 -42 7 -51 23 -51 16 0 19 8 19 53
l1 52 15 -28 c9 -16 13 -39 10 -50 -4 -17 0 -22 17 -23 20 -1 22 3 19 30 -2
18 3 39 13 51 15 19 16 17 13 -33 -3 -46 -1 -52 17 -52 17 0 20 7 20 42 0 48
19 62 30 21 15 -62 78 -86 109 -41 14 20 14 23 0 31 -11 6 -19 3 -28 -9 -8
-10 -20 -15 -29 -11 -12 4 -15 18 -12 59 4 71 3 68 21 68 9 0 18 -9 21 -20 4
-16 9 -18 25 -9 20 11 20 11 -3 35 -40 43 -78 28 -108 -41 -11 -27 -14 -28
-23 -11 -5 10 -8 30 -6 44 3 24 0 27 -24 28 -23 1 -29 -5 -39 -34 -11 -33 -13
-34 -25 -17 -8 10 -14 27 -14 37 0 13 -7 17 -29 15 -27 -2 -30 -6 -33 -43z"/>
<path d="M2000 2414 l-25 -15 25 8 c14 4 45 7 69 6 29 -1 39 2 30 8 -21 13
-71 10 -99 -7z"/>
<path d="M1916 2254 c-20 -20 -20 -23 2 -23 9 1 35 -6 57 -14 35 -14 40 -14
43 0 10 41 -69 70 -102 37z"/>
<path d="M2110 2250 c-33 -33 -26 -49 15 -40 20 4 43 14 51 21 13 10 17 10 25
-2 7 -11 9 -11 9 3 0 38 -68 50 -100 18z"/>
<path d="M1585 1960 c3 -5 8 -10 11 -10 2 0 4 5 4 10 0 6 -5 10 -11 10 -5 0
-7 -4 -4 -10z"/>
<path d="M2510 1960 c0 -5 4 -10 9 -10 6 0 13 5 16 10 3 6 -1 10 -9 10 -9 0
-16 -4 -16 -10z"/>
<path d="M1870 1795 l0 -45 40 0 40 0 0 45 0 45 -40 0 -40 0 0 -45z"/>
<path d="M2132 1260 c0 -14 2 -19 5 -12 2 6 2 18 0 25 -3 6 -5 1 -5 -13z"/>
<path d="M2740 1225 c0 -14 5 -25 10 -25 6 0 10 11 10 25 0 14 -4 25 -10 25
-5 0 -10 -11 -10 -25z"/>
<path d="M2410 629 c0 -5 5 -7 10 -4 6 3 10 8 10 11 0 2 -4 4 -10 4 -5 0 -10
-5 -10 -11z"/>
<path d="M2390 595 c-7 -9 -9 -22 -5 -32 5 -10 7 -25 6 -34 -1 -9 5 -21 13
-28 30 -25 80 15 56 44 -6 7 -7 20 -4 30 12 31 -43 48 -66 20z"/>
<path d="M2634 536 c-16 -13 -17 -18 -6 -35 6 -12 12 -29 12 -40 0 -30 38 -37
63 -12 17 16 19 23 9 33 -7 7 -12 22 -12 34 0 19 -17 34 -39 34 -4 0 -16 -6
-27 -14z"/>
</g>
</svg>
